ffmpeg started on 2025-05-12 at 14:07:01
Report written to "D:\Convert\FFMetrics\reports\ssim_report-6.txt"
Log level: 32
Command line:
ffmpeg -hide_banner -nostdin -i "G:\\\xc0\xed\xe8\xec\xe5\\\xce\xed\xe3\xee\xe8\xed\xe3\xe8\\!_35_\xcb\xe5\xf2\xee_2024\\DreamCast\\\xc2\xe8\xf2\xf3\xe1\xe5\xf0 - \xdf \xf1\xf2\xe0\xeb\xe0 \xef\xee\xef\xf3\xeb\xff\xf0\xed\xee\xe9 \xef\xee\xf1\xeb\xe5 \xf2\xee\xe3\xee, \xea\xe0\xea \xe7\xe0\xe1\xfb\xeb\xe0 \xe2\xfb\xea\xeb\xfe\xf7\xe8\xf2\xfc \xf1\xf2\xf0\xe8\xec\\[DC] Vden - 03_Telegram_HEVC.mkv" -i "G:\\\xc0\xed\xe8\xec\xe5\\\xce\xed\xe3\xee\xe8\xed\xe3\xe8\\!_35_\xcb\xe5\xf2\xee_2024\\DreamCast\\\xc2\xe8\xf2\xf3\xe1\xe5\xf0 - \xdf \xf1\xf2\xe0\xeb\xe0 \xef\xee\xef\xf3\xeb\xff\xf0\xed\xee\xe9 \xef\xee\xf1\xeb\xe5 \xf2\xee\xe3\xee, \xea\xe0\xea \xe7\xe0\xe1\xfb\xeb\xe0 \xe2\xfb\xea\xeb\xfe\xf7\xe8\xf2\xfc \xf1\xf2\xf0\xe8\xec\\[DC] Vden - 03_Telegram.mp4" -lavfi "[0:v]settb=AVTB,setpts=PTS-STARTPTS,format=pix_fmts=yuv420p10,fps=24000/1001,scale=1920:1080:flags=bicubic[main];[1:v]settb=AVTB,setpts=PTS-STARTPTS,format=pix_fmts=yuv420p,fps=24000/1001,scale=1920:1080:flags=bicubic[ref];[main][ref]ssim=eof_action=endall:stats_file='D\\:/Convert/FFMetrics/logs/ssim_logfile-6.txt'" -f null -
Input #0, matroska,webm, from 'G:\Аниме\Онгоинги\!_35_Лето_2024\DreamCast\Витубер - Я стала популярной после того, как забыла выключить стрим\[DC] Vden - 03_Telegram_HEVC.mkv':
  Metadata:
    COMPATIBLE_BRANDS: isomiso2avc1mp41
    MAJOR_BRAND     : isom
    MINOR_VERSION   : 512
    ENCODER         : Lavf61.7.100
  Duration: 00:23:46.77, start: -0.021000, bitrate: 1393 kb/s
  Stream #0:0: Video: hevc (Main 10), yuv420p10le(tv, bt709, progressive), 1920x1080 [SAR 1:1 DAR 16:9], 23.98 fps, 23.98 tbr, 1k tbn (default)
      Metadata:
        HANDLER_NAME    : VideoHandler
        VENDOR_ID       : [0][0][0][0]
        ENCODER         : Lavc61.19.100 libx265
        BPS             : 1196727
        DURATION        : 00:23:46.633708333
        NUMBER_OF_FRAMES: 34205
        NUMBER_OF_BYTES : 213411326
        _STATISTICS_WRITING_APP: mkvpropedit v66.0.0 ('Josie') 64-bit
        _STATISTICS_WRITING_DATE_UTC: 2025-05-07 08:59:40
        _STATISTICS_TAGS: BPS DURATION NUMBER_OF_FRAMES NUMBER_OF_BYTES
  Stream #0:1: Audio: aac (LC), 48000 Hz, stereo, fltp (default)
      Metadata:
        HANDLER_NAME    : SoundHandler
        VENDOR_ID       : [0][0][0][0]
        ENCODER         : Lavc61.19.100 aac
        BPS             : 192725
        DURATION        : 00:23:46.773000000
        NUMBER_OF_FRAMES: 66881
        NUMBER_OF_BYTES : 34372014
        _STATISTICS_WRITING_APP: mkvpropedit v66.0.0 ('Josie') 64-bit
        _STATISTICS_WRITING_DATE_UTC: 2025-05-07 08:59:40
        _STATISTICS_TAGS: BPS DURATION NUMBER_OF_FRAMES NUMBER_OF_BYTES
Input #1, mov,mp4,m4a,3gp,3g2,mj2, from 'G:\Аниме\Онгоинги\!_35_Лето_2024\DreamCast\Витубер - Я стала популярной после того, как забыла выключить стрим\[DC] Vden - 03_Telegram.mp4':
  Metadata:
    major_brand     : isom
    minor_version   : 512
    compatible_brands: isomiso2avc1mp41
    encoder         : Lavf61.1.100
  Duration: 00:23:46.75, start: 0.000000, bitrate: 3786 kb/s
  Stream #1:0[0x1](und): Video: h264 (High) (avc1 / 0x31637661), yuv420p(tv, bt709, progressive), 1920x1080 [SAR 1:1 DAR 16:9], 3639 kb/s, 23.98 fps, 23.98 tbr, 24k tbn (default)
      Metadata:
        handler_name    : VideoHandler
        vendor_id       : [0][0][0][0]
        encoder         : Lavc61.3.100 h264_qsv
  Stream #1:1[0x2](und): Audio: aac (HE-AACv2) (mp4a / 0x6134706D), 48000 Hz, stereo, fltp, 144 kb/s (default)
      Metadata:
        handler_name    : SoundHandler
        vendor_id       : [0][0][0][0]
Stream mapping:
  Stream #0:0 (hevc) -> settb:default
  Stream #1:0 (h264) -> settb:default
  ssim:default -> Stream #0:0 (wrapped_avframe)
  Stream #0:1 -> #0:1 (aac (native) -> pcm_s16le (native))
Output #0, null, to 'pipe:':
  Metadata:
    COMPATIBLE_BRANDS: isomiso2avc1mp41
    MAJOR_BRAND     : isom
    MINOR_VERSION   : 512
    encoder         : Lavf61.7.100
  Stream #0:0: Video: wrapped_avframe, yuv420p10le(tv, bt709, progressive), 1920x1080 [SAR 1:1 DAR 16:9], q=2-31, 200 kb/s, 23.98 fps, 23.98 tbn
      Metadata:
        encoder         : Lavc61.19.100 wrapped_avframe
  Stream #0:1: Audio: pcm_s16le, 48000 Hz, stereo, s16, 1536 kb/s (default)
      Metadata:
        HANDLER_NAME    : SoundHandler
        VENDOR_ID       : [0][0][0][0]
        _STATISTICS_TAGS: BPS DURATION NUMBER_OF_FRAMES NUMBER_OF_BYTES
        BPS             : 192725
        DURATION        : 00:23:46.773000000
        NUMBER_OF_FRAMES: 66881
        NUMBER_OF_BYTES : 34372014
        _STATISTICS_WRITING_APP: mkvpropedit v66.0.0 ('Josie') 64-bit
        _STATISTICS_WRITING_DATE_UTC: 2025-05-07 08:59:40
        encoder         : Lavc61.19.100 pcm_s16le
frame=  163 fps=0.0 q=-0.0 size=N/A time=00:00:06.79 bitrate=N/A speed=  13x    frame=  421 fps=409 q=-0.0 size=N/A time=00:00:17.55 bitrate=N/A speed=17.1x    frame=  680 fps=439 q=-0.0 size=N/A time=00:00:28.36 bitrate=N/A speed=18.3x    frame=  965 fps=465 q=-0.0 size=N/A time=00:00:40.24 bitrate=N/A speed=19.4x    frame= 1229 fps=476 q=-0.0 size=N/A time=00:00:51.25 bitrate=N/A speed=19.9x    frame= 1478 fps=476 q=-0.0 size=N/A time=00:01:01.64 bitrate=N/A speed=19.9x    frame= 1669 fps=462 q=-0.0 size=N/A time=00:01:09.61 bitrate=N/A speed=19.3x    frame= 1878 fps=454 q=-0.0 size=N/A time=00:01:18.32 bitrate=N/A speed=18.9x    frame= 2089 fps=450 q=-0.0 size=N/A time=00:01:27.12 bitrate=N/A speed=18.8x    frame= 2277 fps=441 q=-0.0 size=N/A time=00:01:34.96 bitrate=N/A speed=18.4x    frame= 2497 fps=439 q=-0.0 size=N/A time=00:01:44.14 bitrate=N/A speed=18.3x    frame= 2680 fps=432 q=-0.0 size=N/A time=00:01:51.77 bitrate=N/A speed=  18x    frame= 2856 fps=425 q=-0.0 size=N/A time=00:01:59.11 bitrate=N/A speed=17.7x    frame= 3021 fps=417 q=-0.0 size=N/A time=00:02:06.00 bitrate=N/A speed=17.4x    frame= 3190 fps=411 q=-0.0 size=N/A time=00:02:13.04 bitrate=N/A speed=17.1x    frame= 3336 fps=403 q=-0.0 size=N/A time=00:02:19.13 bitrate=N/A speed=16.8x    frame= 3532 fps=402 q=-0.0 size=N/A time=00:02:27.31 bitrate=N/A speed=16.8x    frame= 3788 fps=407 q=-0.0 size=N/A time=00:02:37.99 bitrate=N/A speed=  17x    frame= 4026 fps=410 q=-0.0 size=N/A time=00:02:47.91 bitrate=N/A speed=17.1x    frame= 4286 fps=415 q=-0.0 size=N/A time=00:02:58.76 bitrate=N/A speed=17.3x    frame= 4568 fps=421 q=-0.0 size=N/A time=00:03:10.52 bitrate=N/A speed=17.5x    frame= 4828 fps=425 q=-0.0 size=N/A time=00:03:21.36 bitrate=N/A speed=17.7x    frame= 5075 fps=427 q=-0.0 size=N/A time=00:03:31.66 bitrate=N/A speed=17.8x    frame= 5347 fps=431 q=-0.0 size=N/A time=00:03:43.01 bitrate=N/A speed=  18x    frame= 5609 fps=434 q=-0.0 size=N/A time=00:03:53.94 bitrate=N/A speed=18.1x    frame= 5868 fps=437 q=-0.0 size=N/A time=00:04:04.74 bitrate=N/A speed=18.2x    frame= 6134 fps=440 q=-0.0 size=N/A time=00:04:15.83 bitrate=N/A speed=18.3x    frame= 6380 fps=441 q=-0.0 size=N/A time=00:04:26.09 bitrate=N/A speed=18.4x    frame= 6649 fps=444 q=-0.0 size=N/A time=00:04:37.31 bitrate=N/A speed=18.5x    frame= 6893 fps=445 q=-0.0 size=N/A time=00:04:47.49 bitrate=N/A speed=18.6x    frame= 7048 fps=440 q=-0.0 size=N/A time=00:04:53.96 bitrate=N/A speed=18.4x    frame= 7300 fps=442 q=-0.0 size=N/A time=00:05:04.47 bitrate=N/A speed=18.4x    frame= 7570 fps=444 q=-0.0 size=N/A time=00:05:15.73 bitrate=N/A speed=18.5x    frame= 7833 fps=446 q=-0.0 size=N/A time=00:05:26.70 bitrate=N/A speed=18.6x    frame= 8090 fps=448 q=-0.0 size=N/A time=00:05:37.42 bitrate=N/A speed=18.7x    frame= 8366 fps=450 q=-0.0 size=N/A time=00:05:48.93 bitrate=N/A speed=18.8x    frame= 8585 fps=449 q=-0.0 size=N/A time=00:05:58.06 bitrate=N/A speed=18.7x    frame= 8818 fps=450 q=-0.0 size=N/A time=00:06:07.78 bitrate=N/A speed=18.8x    frame= 9054 fps=450 q=-0.0 size=N/A time=00:06:17.62 bitrate=N/A speed=18.8x    frame= 9282 fps=450 q=-0.0 size=N/A time=00:06:27.13 bitrate=N/A speed=18.8x    frame= 9480 fps=448 q=-0.0 size=N/A time=00:06:35.39 bitrate=N/A speed=18.7x    frame= 9726 fps=449 q=-0.0 size=N/A time=00:06:45.65 bitrate=N/A speed=18.7x    frame= 9958 fps=449 q=-0.0 size=N/A time=00:06:55.33 bitrate=N/A speed=18.7x    frame=10226 fps=450 q=-0.0 size=N/A time=00:07:06.50 bitrate=N/A speed=18.8x    frame=10471 fps=451 q=-0.0 size=N/A time=00:07:16.72 bitrate=N/A speed=18.8x    frame=10738 fps=452 q=-0.0 size=N/A time=00:07:27.86 bitrate=N/A speed=18.9x    frame=10986 fps=453 q=-0.0 size=N/A time=00:07:38.20 bitrate=N/A speed=18.9x    frame=11228 fps=453 q=-0.0 size=N/A time=00:07:48.30 bitrate=N/A speed=18.9x    frame=11462 fps=453 q=-0.0 size=N/A time=00:07:58.06 bitrate=N/A speed=18.9x    frame=11672 fps=453 q=-0.0 size=N/A time=00:08:06.81 bitrate=N/A speed=18.9x    frame=11886 fps=452 q=-0.0 size=N/A time=00:08:15.74 bitrate=N/A speed=18.8x    frame=12156 fps=453 q=-0.0 size=N/A time=00:08:27.00 bitrate=N/A speed=18.9x    frame=12342 fps=451 q=-0.0 size=N/A time=00:08:34.76 bitrate=N/A speed=18.8x    frame=12609 fps=452 q=-0.0 size=N/A time=00:08:45.90 bitrate=N/A speed=18.9x    frame=12832 fps=452 q=-0.0 size=N/A time=00:08:55.20 bitrate=N/A speed=18.9x    frame=13082 fps=453 q=-0.0 size=N/A time=00:09:05.62 bitrate=N/A speed=18.9x    frame=13342 fps=454 q=-0.0 size=N/A time=00:09:16.47 bitrate=N/A speed=18.9x    frame=13591 fps=454 q=-0.0 size=N/A time=00:09:26.85 bitrate=N/A speed=18.9x    frame=13855 fps=455 q=-0.0 size=N/A time=00:09:37.86 bitrate=N/A speed=  19x    frame=14123 fps=456 q=-0.0 size=N/A time=00:09:49.04 bitrate=N/A speed=  19x    frame=14378 fps=457 q=-0.0 size=N/A time=00:09:59.68 bitrate=N/A speed=19.1x    frame=14633 fps=457 q=-0.0 size=N/A time=00:10:10.31 bitrate=N/A speed=19.1x    frame=14843 fps=457 q=-0.0 size=N/A time=00:10:19.07 bitrate=N/A speed=  19x    frame=15121 fps=458 q=-0.0 size=N/A time=00:10:30.67 bitrate=N/A speed=19.1x    frame=15396 fps=459 q=-0.0 size=N/A time=00:10:42.14 bitrate=N/A speed=19.2x    frame=15663 fps=460 q=-0.0 size=N/A time=00:10:53.27 bitrate=N/A speed=19.2x    frame=15900 fps=460 q=-0.0 size=N/A time=00:11:03.16 bitrate=N/A speed=19.2x    frame=16160 fps=461 q=-0.0 size=N/A time=00:11:14.00 bitrate=N/A speed=19.2x    frame=16380 fps=460 q=-0.0 size=N/A time=00:11:23.18 bitrate=N/A speed=19.2x    frame=16637 fps=461 q=-0.0 size=N/A time=00:11:33.90 bitrate=N/A speed=19.2x    frame=16878 fps=461 q=-0.0 size=N/A time=00:11:43.95 bitrate=N/A speed=19.2x    frame=17072 fps=460 q=-0.0 size=N/A time=00:11:52.08 bitrate=N/A speed=19.2x    frame=17273 fps=459 q=-0.0 size=N/A time=00:12:00.42 bitrate=N/A speed=19.1x    frame=17529 fps=459 q=-0.0 size=N/A time=00:12:11.10 bitrate=N/A speed=19.2x    frame=17796 fps=460 q=-0.0 size=N/A time=00:12:22.24 bitrate=N/A speed=19.2x    frame=18057 fps=461 q=-0.0 size=N/A time=00:12:33.12 bitrate=N/A speed=19.2x    frame=18345 fps=462 q=-0.0 size=N/A time=00:12:45.13 bitrate=N/A speed=19.3x    frame=18582 fps=462 q=-0.0 size=N/A time=00:12:55.02 bitrate=N/A speed=19.3x    frame=18850 fps=463 q=-0.0 size=N/A time=00:13:06.20 bitrate=N/A speed=19.3x    frame=19107 fps=463 q=-0.0 size=N/A time=00:13:16.92 bitrate=N/A speed=19.3x    frame=19341 fps=463 q=-0.0 size=N/A time=00:13:26.68 bitrate=N/A speed=19.3x    frame=19595 fps=463 q=-0.0 size=N/A time=00:13:37.27 bitrate=N/A speed=19.3x    frame=19848 fps=464 q=-0.0 size=N/A time=00:13:47.82 bitrate=N/A speed=19.3x    frame=20098 fps=464 q=-0.0 size=N/A time=00:13:58.25 bitrate=N/A speed=19.3x    frame=20322 fps=463 q=-0.0 size=N/A time=00:14:07.59 bitrate=N/A speed=19.3x    frame=20513 fps=462 q=-0.0 size=N/A time=00:14:15.56 bitrate=N/A speed=19.3x    frame=20689 fps=461 q=-0.0 size=N/A time=00:14:22.90 bitrate=N/A speed=19.2x    frame=20920 fps=461 q=-0.0 size=N/A time=00:14:32.53 bitrate=N/A speed=19.2x    frame=21138 fps=460 q=-0.0 size=N/A time=00:14:41.63 bitrate=N/A speed=19.2x    frame=21328 fps=459 q=-0.0 size=N/A time=00:14:49.55 bitrate=N/A speed=19.2x    frame=21563 fps=459 q=-0.0 size=N/A time=00:14:59.35 bitrate=N/A speed=19.2x    frame=21796 fps=459 q=-0.0 size=N/A time=00:15:09.07 bitrate=N/A speed=19.1x    frame=22063 fps=460 q=-0.0 size=N/A time=00:15:20.21 bitrate=N/A speed=19.2x    frame=22311 fps=460 q=-0.0 size=N/A time=00:15:30.55 bitrate=N/A speed=19.2x    frame=22532 fps=460 q=-0.0 size=N/A time=00:15:39.77 bitrate=N/A speed=19.2x    frame=22769 fps=460 q=-0.0 size=N/A time=00:15:49.65 bitrate=N/A speed=19.2x    frame=22955 fps=459 q=-0.0 size=N/A time=00:15:57.41 bitrate=N/A speed=19.1x    frame=23158 fps=458 q=-0.0 size=N/A time=00:16:05.88 bitrate=N/A speed=19.1x    frame=23406 fps=458 q=-0.0 size=N/A time=00:16:16.22 bitrate=N/A speed=19.1x    frame=23668 fps=459 q=-0.0 size=N/A time=00:16:27.15 bitrate=N/A speed=19.1x    frame=23893 fps=458 q=-0.0 size=N/A time=00:16:36.53 bitrate=N/A speed=19.1x    frame=24152 fps=459 q=-0.0 size=N/A time=00:16:47.33 bitrate=N/A speed=19.1x    frame=24410 fps=459 q=-0.0 size=N/A time=00:16:58.10 bitrate=N/A speed=19.2x    frame=24661 fps=460 q=-0.0 size=N/A time=00:17:08.56 bitrate=N/A speed=19.2x    frame=24803 fps=458 q=-0.0 size=N/A time=00:17:14.49 bitrate=N/A speed=19.1x    frame=25061 fps=458 q=-0.0 size=N/A time=00:17:25.25 bitrate=N/A speed=19.1x    frame=25308 fps=458 q=-0.0 size=N/A time=00:17:35.55 bitrate=N/A speed=19.1x    frame=25480 fps=457 q=-0.0 size=N/A time=00:17:42.72 bitrate=N/A speed=19.1x    frame=25725 fps=457 q=-0.0 size=N/A time=00:17:52.94 bitrate=N/A speed=19.1x    frame=25977 fps=458 q=-0.0 size=N/A time=00:18:03.45 bitrate=N/A speed=19.1x    frame=26235 fps=458 q=-0.0 size=N/A time=00:18:14.21 bitrate=N/A speed=19.1x    frame=26486 fps=458 q=-0.0 size=N/A time=00:18:24.68 bitrate=N/A speed=19.1x    frame=26708 fps=458 q=-0.0 size=N/A time=00:18:33.94 bitrate=N/A speed=19.1x    frame=26867 fps=457 q=-0.0 size=N/A time=00:18:40.57 bitrate=N/A speed=19.1x    frame=27108 fps=457 q=-0.0 size=N/A time=00:18:50.62 bitrate=N/A speed=19.1x    frame=27273 fps=456 q=-0.0 size=N/A time=00:18:57.51 bitrate=N/A speed=  19x    frame=27550 fps=456 q=-0.0 size=N/A time=00:19:09.06 bitrate=N/A speed=  19x    frame=27775 fps=456 q=-0.0 size=N/A time=00:19:18.44 bitrate=N/A speed=  19x    frame=28048 fps=457 q=-0.0 size=N/A time=00:19:29.83 bitrate=N/A speed=19.1x    frame=28259 fps=457 q=-0.0 size=N/A time=00:19:38.63 bitrate=N/A speed=  19x    frame=28490 fps=456 q=-0.0 size=N/A time=00:19:48.27 bitrate=N/A speed=  19x    frame=28655 fps=455 q=-0.0 size=N/A time=00:19:55.15 bitrate=N/A speed=  19x    frame=28919 fps=456 q=-0.0 size=N/A time=00:20:06.16 bitrate=N/A speed=  19x    frame=29185 fps=456 q=-0.0 size=N/A time=00:20:17.25 bitrate=N/A speed=  19x    frame=29416 fps=456 q=-0.0 size=N/A time=00:20:26.89 bitrate=N/A speed=  19x    frame=29658 fps=456 q=-0.0 size=N/A time=00:20:36.98 bitrate=N/A speed=  19x    frame=29926 fps=457 q=-0.0 size=N/A time=00:20:48.16 bitrate=N/A speed=19.1x    frame=30178 fps=457 q=-0.0 size=N/A time=00:20:58.67 bitrate=N/A speed=19.1x    frame=30391 fps=457 q=-0.0 size=N/A time=00:21:07.55 bitrate=N/A speed=  19x    frame=30609 fps=456 q=-0.0 size=N/A time=00:21:16.65 bitrate=N/A speed=  19x    frame=30858 fps=457 q=-0.0 size=N/A time=00:21:27.03 bitrate=N/A speed=  19x    frame=31122 fps=457 q=-0.0 size=N/A time=00:21:38.04 bitrate=N/A speed=19.1x    frame=31385 fps=457 q=-0.0 size=N/A time=00:21:49.01 bitrate=N/A speed=19.1x    frame=31640 fps=458 q=-0.0 size=N/A time=00:21:59.65 bitrate=N/A speed=19.1x    frame=31889 fps=458 q=-0.0 size=N/A time=00:22:10.03 bitrate=N/A speed=19.1x    frame=32030 fps=457 q=-0.0 size=N/A time=00:22:15.91 bitrate=N/A speed=  19x    frame=32229 fps=456 q=-0.0 size=N/A time=00:22:24.21 bitrate=N/A speed=  19x    frame=32466 fps=456 q=-0.0 size=N/A time=00:22:34.10 bitrate=N/A speed=  19x    frame=32705 fps=456 q=-0.0 size=N/A time=00:22:44.07 bitrate=N/A speed=  19x    frame=32949 fps=456 q=-0.0 size=N/A time=00:22:54.24 bitrate=N/A speed=  19x    frame=33185 fps=456 q=-0.0 size=N/A time=00:23:04.09 bitrate=N/A speed=  19x    frame=33413 fps=456 q=-0.0 size=N/A time=00:23:13.60 bitrate=N/A speed=  19x    frame=33654 fps=456 q=-0.0 size=N/A time=00:23:23.65 bitrate=N/A speed=  19x    frame=33887 fps=456 q=-0.0 size=N/A time=00:23:33.37 bitrate=N/A speed=  19x    frame=34127 fps=456 q=-0.0 size=N/A time=00:23:43.38 bitrate=N/A speed=  19x    [Parsed_ssim_10 @ 0000023dc77e7c80] SSIM Y:0.994746 (22.795453) U:0.992395 (21.188879) V:0.992294 (21.131772) All:0.993946 (22.179408)
[out#0/null @ 0000023dc4e74e00] video:14697KiB audio:267524KiB subtitle:0KiB other streams:0KiB global headers:0KiB muxing overhead: unknown
frame=34205 fps=456 q=-0.0 Lsize=N/A time=00:23:46.63 bitrate=N/A speed=  19x    
